# Wavefront Obj file
# 
# verts: 58 uv-s: 124
mtllib StationOfficesWall09.mtl

g Boîte016

v 2.000000 30.000000 1.014100
v 2.000000 30.000000 -0.985900
v -2.000000 30.000000 -0.985900
v -2.000000 30.000000 1.014100
v -2.000000 5.272800 5.014100
v -2.000000 6.644400 4.151200
v -2.000000 6.644400 -4.194800
v -2.000000 5.272800 -4.985900
v 2.000000 5.272800 5.014100
v 2.000000 30.000000 5.014100
v -2.000000 30.000000 5.014100
v 2.000000 5.272800 -4.985900
v 2.000000 6.644400 -4.194800
v 2.000000 6.644400 4.151200
v -2.000000 30.000000 -4.985900
v 2.000000 30.000000 -4.985900
v -2.728500 5.272800 -4.985900
v -2.728500 5.272800 5.014100
v -2.000000 0.000000 5.014100
v 2.000000 0.000000 5.014100
v 2.653200 5.272800 5.014100
v 2.653200 5.272800 -4.985900
v 2.000000 0.000000 -4.985900
v -2.000000 0.000000 -4.985900
v -3.228500 4.772800 5.014100
v -3.228500 4.772800 -4.985900
v 2.653200 0.000000 5.014100
v 2.653200 0.000000 -4.985900
v -3.228500 0.000000 5.014100
v -3.228500 0.000000 -4.985900
v 2.000000 27.457800 -4.194800
v -2.000000 27.457800 -4.194800
v 2.000000 28.016899 -0.856400
v 2.000000 28.016899 0.812800
v -2.000000 28.016899 0.812800
v -2.000000 28.016899 -0.856400
v -2.000000 27.457800 4.151200
v 2.000000 27.457800 4.151200
v -2.564500 30.000000 1.014100
v -2.564500 30.000000 -0.985900
v -2.564500 28.016899 -0.856400
v -2.564500 28.016899 0.812800
v 2.000000 30.000000 -2.985900
v -2.000000 30.000000 -2.985900
v -2.000000 30.000000 3.014100
v 2.000000 30.000000 3.014100
v 2.000000 27.858299 2.482000
v -2.000000 27.858299 2.482000
v -2.000000 27.858299 -2.525600
v 2.000000 27.858299 -2.525600
v -2.728000 5.559600 -4.837800
v -2.728000 6.753400 -4.837800
v -0.799500 6.753400 -4.837800
v -0.799500 5.559600 -4.837800
v -2.728000 5.559600 4.862900
v -0.799500 5.559600 4.862900
v -0.799500 6.753400 4.862900
v -2.728000 6.753400 4.862900
# 58 positions

vt 0.404267 0.174189
vt 0.459267 0.174188
vt 0.459267 0.284188
vt 0.404267 0.284188
vt 0.569776 0.309987
vt 0.546032 0.347698
vt 0.316519 0.347625
vt 0.294766 0.309904
vt 0.597492 0.844998
vt 0.597494 0.165001
vt 0.707494 0.165002
vt 0.707491 0.844998
vt 0.010003 0.827030
vt 0.031760 0.789312
vt 0.261274 0.789315
vt 0.285003 0.827035
vt 0.869114 0.310002
vt 0.869120 0.989999
vt 0.759120 0.990000
vt 0.759115 0.310003
vt 0.040785 0.779634
vt 0.040785 0.504634
vt 0.060819 0.504634
vt 0.060819 0.779633
vt 0.707492 0.990000
vt 0.597492 0.990000
vt 0.285003 0.844998
vt 0.010003 0.844993
vt 0.759115 0.165001
vt 0.869115 0.165001
vt 0.727525 0.844998
vt 0.889148 0.310003
vt 0.080264 0.779633
vt 0.080264 0.504634
vt 0.579529 0.990000
vt 0.579529 0.844998
vt 0.741152 0.310003
vt 0.741152 0.165001
vt 0.285000 0.990000
vt 0.010000 0.989994
vt 0.741275 0.858748
vt 0.741276 0.990000
vt 0.902899 0.165001
vt 0.902898 0.296253
vt 0.211516 0.504634
vt 0.211516 0.779633
vt 0.871989 0.043351
vt 0.871989 0.153351
vt 0.299622 0.153351
vt 0.299622 0.043351
vt 0.220844 0.354729
vt 0.220844 0.400632
vt 0.110844 0.400632
vt 0.110844 0.354729
vt 0.880000 0.417633
vt 0.990000 0.417633
vt 0.990000 0.990000
vt 0.880000 0.990000
vt 0.423037 0.361466
vt 0.533036 0.361466
vt 0.533036 0.590981
vt 0.423037 0.590981
vt 0.261291 0.216944
vt 0.285021 0.147034
vt 0.031775 0.216945
vt 0.010021 0.147034
vt 0.169486 0.201569
vt 0.123583 0.201571
vt 0.120020 0.147035
vt 0.175020 0.147034
vt 0.040785 0.406168
vt 0.040785 0.351168
vt 0.095321 0.354729
vt 0.095321 0.400632
vt 0.294764 0.989915
vt 0.316520 0.920003
vt 0.569498 0.990000
vt 0.545796 0.920078
vt 0.514267 0.174188
vt 0.569267 0.174188
vt 0.569267 0.284188
vt 0.514267 0.284188
vt 0.349267 0.284188
vt 0.294267 0.284188
vt 0.294267 0.174188
vt 0.349267 0.174188
vt 0.220844 0.446741
vt 0.220844 0.493947
vt 0.110844 0.493947
vt 0.110844 0.446741
vt 0.110844 0.308619
vt 0.110844 0.261414
vt 0.220844 0.261414
vt 0.220844 0.308619
vt 0.077679 0.205933
vt 0.065021 0.147036
vt 0.230020 0.147033
vt 0.215388 0.205930
vt 0.349766 0.989915
vt 0.362424 0.931017
vt 0.404767 0.989915
vt 0.408328 0.935378
vt 0.499888 0.931074
vt 0.514497 0.989977
vt 0.453982 0.935416
vt 0.459495 0.989955
vt 0.459267 0.299712
vt 0.404267 0.299712
vt 0.041797 0.335677
vt 0.096332 0.339238
vt 0.096888 0.416076
vt 0.042353 0.421612
vt 0.378221 0.867700
vt 0.411050 0.867700
vt 0.411050 0.920733
vt 0.378221 0.920733
vt 0.378221 0.600930
vt 0.378221 0.547897
vt 0.411050 0.547897
vt 0.411050 0.600930
vt 0.325187 0.867700
vt 0.325187 0.600930
vt 0.464084 0.867700
vt 0.464084 0.600930
# 124 texture coordinates

vn 0.000000 1.000000 0.000000
vn 1.000000 0.000000 0.000000
vn 0.000000 1.000000 0.000000
vn 1.000000 0.000000 0.000000
vn 0.000000 1.000000 0.000000
vn -1.000000 0.000000 0.000000
vn 0.000000 -0.065163 -0.997875
vn 0.000000 1.000000 0.000000
vn -1.000000 0.000000 0.000000
vn 0.000000 -0.100989 0.994888
vn -1.000000 0.000000 0.000000
vn 0.000000 0.000000 1.000000
vn 0.000000 1.000000 0.000000
vn -1.000000 0.000000 0.000000
vn 0.000000 0.000000 -1.000000
vn 0.000000 1.000000 0.000000
vn -1.000000 0.000000 0.000000
vn 0.000000 0.000000 1.000000
vn 0.000000 1.000000 0.000000
vn -1.000000 0.000000 0.000000
vn 0.000000 0.000000 -1.000000
vn 0.000000 1.000000 0.000000
vn 0.000000 0.000000 1.000000
vn 1.000000 0.000000 0.000000
vn 0.000000 1.000000 0.000000
vn 0.000000 0.000000 1.000000
vn 1.000000 0.000000 0.000000
vn 0.000000 1.000000 0.000000
vn 0.000000 0.000000 1.000000
vn -1.000000 0.000000 0.000000
vn 0.000000 1.000000 0.000000
vn 1.000000 0.000000 0.000000
vn 0.000000 0.000000 -1.000000
vn 0.000000 1.000000 0.000000
vn 1.000000 0.000000 0.000000
vn 0.000000 0.000000 1.000000
vn 0.000000 1.000000 0.000000
vn 1.000000 0.000000 0.000000
vn 0.000000 0.000000 -1.000000
vn 0.000000 1.000000 0.000000
vn 0.000000 0.000000 -1.000000
vn -1.000000 0.000000 0.000000
vn 0.000000 1.000000 0.000000
vn 0.000000 0.000000 -1.000000
vn 1.000000 0.000000 0.000000
vn 0.000000 1.000000 0.000000
vn 0.000000 1.000000 0.000000
vn 0.000000 0.000000 -1.000000
vn -0.707107 0.707107 0.000000
vn 0.000000 1.000000 0.000000
vn 0.000000 0.000000 1.000000
vn -0.707107 0.707107 0.000000
vn 0.000000 0.000000 1.000000
vn 0.000000 0.000000 1.000000
vn 0.000000 1.000000 0.000000
vn 0.000000 0.000000 1.000000
vn 1.000000 0.000000 0.000000
vn 0.000000 1.000000 0.000000
vn 0.000000 0.000000 -1.000000
vn 1.000000 0.000000 0.000000
vn 0.000000 0.000000 -1.000000
vn 0.000000 0.000000 -1.000000
vn -0.707107 0.707107 0.000000
vn 0.000000 0.000000 1.000000
vn -1.000000 0.000000 0.000000
vn -0.707107 0.707107 0.000000
vn 0.000000 0.000000 -1.000000
vn -1.000000 0.000000 0.000000
vn 0.000000 0.000000 1.000000
vn 1.000000 0.000000 0.000000
vn 0.000000 0.000000 -1.000000
vn 1.000000 0.000000 0.000000
vn 0.000000 0.000000 1.000000
vn -1.000000 0.000000 0.000000
vn 0.000000 0.000000 -1.000000
vn -1.000000 0.000000 0.000000
vn 0.000000 0.000000 1.000000
vn 1.000000 0.000000 0.000000
vn 0.000000 -0.972402 0.233313
vn 0.000000 0.000000 1.000000
vn -1.000000 0.000000 0.000000
vn 0.000000 -0.972402 0.233313
vn 0.000000 -0.998878 0.047348
vn 1.000000 0.000000 0.000000
vn 0.000000 -0.998878 -0.047348
vn 1.000000 0.000000 0.000000
vn 0.000000 -0.999502 -0.031561
vn -1.000000 0.000000 0.000000
vn 0.000000 -0.100989 0.994888
vn 0.000000 -0.999502 0.031561
vn -1.000000 0.000000 0.000000
vn 0.000000 -0.065163 -0.997875
vn 0.000000 0.000000 -1.000000
vn -1.000000 0.000000 0.000000
vn 0.000000 -0.972402 -0.233313
vn 0.000000 0.000000 -1.000000
vn 1.000000 0.000000 0.000000
vn 0.000000 -0.972402 -0.233313
vn -1.000000 0.000000 0.000000
vn 0.000000 1.000000 0.000000
vn 0.000000 -0.100989 0.994888
vn -1.000000 0.000000 0.000000
vn 0.000000 1.000000 0.000000
vn 0.000000 -0.065163 -0.997875
vn -1.000000 0.000000 0.000000
vn 0.000000 -0.065163 -0.997875
vn 0.000000 -1.000000 0.000000
vn -1.000000 0.000000 0.000000
vn 0.000000 -1.000000 0.000000
vn 0.000000 -0.100989 0.994888
vn 0.000000 1.000000 0.000000
vn 1.000000 0.000000 0.000000
vn 0.000000 1.000000 0.000000
vn -1.000000 0.000000 0.000000
vn 0.000000 1.000000 0.000000
vn -1.000000 0.000000 0.000000
vn 0.000000 1.000000 0.000000
vn 1.000000 0.000000 0.000000
vn 0.000000 -0.986401 -0.164358
vn 1.000000 0.000000 0.000000
vn 0.000000 -0.986401 -0.164358
vn -1.000000 0.000000 0.000000
vn 0.000000 -0.986401 0.164358
vn -1.000000 0.000000 0.000000
vn 0.000000 -0.986401 0.164358
vn 1.000000 0.000000 0.000000
vn 0.000000 0.000000 -1.000000
vn 0.000000 -1.000000 0.000000
vn -1.000000 0.000000 0.000000
vn 0.000000 0.000000 -1.000000
vn 0.000000 1.000000 0.000000
vn -1.000000 0.000000 0.000000
vn 0.000000 0.000000 -1.000000
vn 0.000000 1.000000 0.000000
vn 0.000000 0.000000 -1.000000
vn 0.000000 -1.000000 0.000000
vn 0.000000 0.000000 1.000000
vn 0.000000 -1.000000 0.000000
vn -1.000000 0.000000 0.000000
vn 0.000000 0.000000 1.000000
vn 0.000000 -1.000000 0.000000
vn 0.000000 0.000000 1.000000
vn 0.000000 1.000000 0.000000
vn 0.000000 0.000000 1.000000
vn 0.000000 1.000000 0.000000
vn -1.000000 0.000000 0.000000
# 146 normals

usemtl wire_213154229
s 1
f 1/1/1 2/2/3 3/3/5 4/4/8
f 43/79/111 16/80/46 15/81/43 44/82/113
f 2/2/3 43/79/111 44/82/113 3/3/5
f 45/83/115 11/84/31 10/85/28 46/86/117
f 4/4/8 45/83/115 46/86/117 1/1/1
f 4/4/8 3/3/5 40/107/103 39/108/100
s 2
f 5/5/11 6/6/14 7/7/17 8/8/20
f 15/75/42 8/8/20 7/7/17 32/76/81
f 5/5/11 11/77/30 37/78/94 6/6/14
f 44/99/114 15/75/42 32/76/81 49/100/124
f 3/101/6 44/99/114 49/100/124 36/102/91
f 48/103/122 37/78/94 11/77/30 45/104/116
f 35/105/88 48/103/122 45/104/116 4/106/9
s 3
f 9/9/23 10/10/26 11/11/29 5/12/12
f 19/25/53 20/26/54 9/9/23 5/12/12
f 19/25/53 5/12/12 18/31/51
f 9/9/23 20/26/54 27/35/69 21/36/56
s 4
f 12/13/32 13/14/35 14/15/38 9/16/24
f 14/15/38 38/63/97 10/64/27 9/16/24
f 31/65/78 13/14/35 12/13/32 16/66/45
f 34/67/86 33/68/84 2/69/4 1/70/2
f 50/95/126 31/65/78 16/66/45 43/96/112
f 33/68/84 50/95/126 43/96/112 2/69/4
f 46/97/118 10/64/27 38/63/97 47/98/120
f 1/70/2 46/97/118 47/98/120 34/67/86
s 5
f 8/17/21 15/18/41 16/19/44 12/20/33
f 23/29/61 24/30/62 8/17/21 12/20/33
f 8/17/21 24/30/62 17/32/48
f 23/29/61 12/20/33 22/37/59 28/38/71
f 24/30/62 30/43/75 26/44/67 17/32/48
s 6
f 5/21/13 8/22/22 17/23/47 18/24/50
s 7
f 12/13/34 9/16/25 21/27/55 22/28/58
s 8
f 25/33/63 18/24/52 17/23/49 26/34/66
s 9
f 27/39/70 28/40/72 22/28/60 21/27/57
s 10
f 19/25/53 18/31/51 25/41/64 29/42/73
s 11
f 30/45/76 29/46/74 25/33/65 26/34/68
s 12
f 7/47/18 13/48/36 31/49/77 32/50/80
s 13
f 33/51/83 34/52/85 35/53/87 36/54/90
f 47/87/119 38/88/98 37/89/95 48/90/121
f 34/52/85 47/87/119 48/90/121 35/53/87
f 49/91/123 32/92/82 31/93/79 50/94/125
f 36/54/90 49/91/123 50/94/125 33/51/83
f 36/54/90 35/53/87 42/74/109 41/73/107
s 14
f 37/55/93 38/56/96 14/57/39 6/58/15
s 15
f 6/59/16 14/60/40 13/61/37 7/62/19
s 16
f 39/71/99 40/72/102 41/73/105 42/74/108
s 17
f 3/109/7 36/110/92 41/73/106 40/72/104
s 18
f 35/111/89 4/112/10 39/71/101 42/74/110
s 19
f 51/113/127 52/114/130 53/115/133 54/116/135
s 20
f 55/117/137 56/118/140 57/119/142 58/120/144
s 21
f 51/113/128 54/121/136 56/122/141 55/117/138
s 22
f 53/123/134 52/114/131 58/120/145 57/124/143
s 23
f 52/114/132 51/113/129 55/117/139 58/120/146

# 53 faces
